<svg width="16" height="16" viewBox="0 0 16 16" fill="none" xmlns="http://www.w3.org/2000/svg">
<path d="M8.8125 2.4375V13.8125V14.625H8H3.125H1.5C1.04297 14.625 0.6875 14.2695 0.6875 13.8125C0.6875 13.3809 1.04297 13 1.5 13H2.3125V3.98633C2.3125 3.42773 2.69336 2.94531 3.22656 2.79297L7.79688 1.65039C8.02539 1.59961 8.2793 1.65039 8.48242 1.80273C8.68555 1.95508 8.8125 2.20898 8.8125 2.4375ZM7.1875 8.125C7.1875 7.69336 6.9082 7.3125 6.57812 7.3125C6.22266 7.3125 5.96875 7.69336 5.96875 8.125C5.96875 8.58203 6.22266 8.9375 6.57812 8.9375C6.9082 8.9375 7.1875 8.58203 7.1875 8.125ZM9.625 4.875V3.25H12.0625C12.9512 3.25 13.6875 3.98633 13.6875 4.875V13H14.5C14.9316 13 15.3125 13.3809 15.3125 13.8125C15.3125 14.2695 14.9316 14.625 14.5 14.625H12.875C12.418 14.625 12.0625 14.2695 12.0625 13.8125V4.875H9.625Z" fill="white"/>
</svg>
